<mxfile host="app.diagrams.net" modified="2024-05-23T14:25:43.134Z" agent="Mozilla/5.0 (Windows NT 10.0; Win64; x64) AppleWebKit/537.36 (KHTML, like Gecko) Chrome/124.0.0.0 Safari/537.36" etag="SgjE2SE1kZBLIgC8BV0A" version="24.4.6" type="github">
  <diagram name="Seite-1" id="TU9W4s5XV5Jqz8ymjJ4V">
    <mxGraphModel dx="1434" dy="746" grid="1" gridSize="10" guides="1" tooltips="1" connect="1" arrows="1" fold="1" page="1" pageScale="1" pageWidth="2339" pageHeight="3300" math="0" shadow="0">
      <root>
        <mxCell id="0" />
        <mxCell id="1" parent="0" />
        <mxCell id="pl0yGp6066iL1tmnYxi--1" value="A: talker / data publisher" style="swimlane;fontStyle=0;childLayout=stackLayout;horizontal=1;startSize=30;horizontalStack=0;resizeParent=1;resizeParentMax=0;resizeLast=0;collapsible=1;marginBottom=0;whiteSpace=wrap;html=1;" vertex="1" parent="1">
          <mxGeometry x="200" y="320" width="140" height="195" as="geometry" />
        </mxCell>
        <mxCell id="pl0yGp6066iL1tmnYxi--46" value="TSN Switch" style="strokeWidth=1;html=1;shadow=0;dashed=0;shape=mxgraph.ios.iOnOffButton;mainText=;strokeColor=#444444;fontSize=9;fontColor=#ffffff;spacingRight=14;buttonState=on;sketch=0;" vertex="1" parent="pl0yGp6066iL1tmnYxi--1">
          <mxGeometry y="30" width="140" height="15" as="geometry" />
        </mxCell>
        <mxCell id="pl0yGp6066iL1tmnYxi--2" value="cost" style="text;strokeColor=none;fillColor=none;align=left;verticalAlign=middle;spacingLeft=4;spacingRight=4;overflow=hidden;points=[[0,0.5],[1,0.5]];portConstraint=eastwest;rotatable=0;whiteSpace=wrap;html=1;" vertex="1" parent="pl0yGp6066iL1tmnYxi--1">
          <mxGeometry y="45" width="140" height="30" as="geometry" />
        </mxCell>
        <mxCell id="pl0yGp6066iL1tmnYxi--3" value="path" style="text;strokeColor=none;fillColor=none;align=left;verticalAlign=middle;spacingLeft=4;spacingRight=4;overflow=hidden;points=[[0,0.5],[1,0.5]];portConstraint=eastwest;rotatable=0;whiteSpace=wrap;html=1;" vertex="1" parent="pl0yGp6066iL1tmnYxi--1">
          <mxGeometry y="75" width="140" height="30" as="geometry" />
        </mxCell>
        <mxCell id="pl0yGp6066iL1tmnYxi--4" value="egressCost" style="text;strokeColor=none;fillColor=none;align=left;verticalAlign=middle;spacingLeft=4;spacingRight=4;overflow=hidden;points=[[0,0.5],[1,0.5]];portConstraint=eastwest;rotatable=0;whiteSpace=wrap;html=1;" vertex="1" parent="pl0yGp6066iL1tmnYxi--1">
          <mxGeometry y="105" width="140" height="30" as="geometry" />
        </mxCell>
        <mxCell id="pl0yGp6066iL1tmnYxi--5" value="ingressCost" style="text;strokeColor=none;fillColor=none;align=left;verticalAlign=middle;spacingLeft=4;spacingRight=4;overflow=hidden;points=[[0,0.5],[1,0.5]];portConstraint=eastwest;rotatable=0;whiteSpace=wrap;html=1;" vertex="1" parent="pl0yGp6066iL1tmnYxi--1">
          <mxGeometry y="135" width="140" height="30" as="geometry" />
        </mxCell>
        <mxCell id="pl0yGp6066iL1tmnYxi--6" value="residenceCost" style="text;strokeColor=none;fillColor=none;align=left;verticalAlign=middle;spacingLeft=4;spacingRight=4;overflow=hidden;points=[[0,0.5],[1,0.5]];portConstraint=eastwest;rotatable=0;whiteSpace=wrap;html=1;" vertex="1" parent="pl0yGp6066iL1tmnYxi--1">
          <mxGeometry y="165" width="140" height="30" as="geometry" />
        </mxCell>
        <mxCell id="pl0yGp6066iL1tmnYxi--7" value="B" style="swimlane;fontStyle=0;childLayout=stackLayout;horizontal=1;startSize=30;horizontalStack=0;resizeParent=1;resizeParentMax=0;resizeLast=0;collapsible=1;marginBottom=0;whiteSpace=wrap;html=1;" vertex="1" parent="1">
          <mxGeometry x="440" y="320" width="140" height="195" as="geometry" />
        </mxCell>
        <mxCell id="pl0yGp6066iL1tmnYxi--47" value="TSN Switch" style="strokeWidth=1;html=1;shadow=0;dashed=0;shape=mxgraph.ios.iOnOffButton;mainText=;strokeColor=#444444;fontSize=9;fontColor=#ffffff;spacingRight=14;buttonState=on;sketch=0;" vertex="1" parent="pl0yGp6066iL1tmnYxi--7">
          <mxGeometry y="30" width="140" height="15" as="geometry" />
        </mxCell>
        <mxCell id="pl0yGp6066iL1tmnYxi--8" value="cost" style="text;strokeColor=none;fillColor=none;align=left;verticalAlign=middle;spacingLeft=4;spacingRight=4;overflow=hidden;points=[[0,0.5],[1,0.5]];portConstraint=eastwest;rotatable=0;whiteSpace=wrap;html=1;" vertex="1" parent="pl0yGp6066iL1tmnYxi--7">
          <mxGeometry y="45" width="140" height="30" as="geometry" />
        </mxCell>
        <mxCell id="pl0yGp6066iL1tmnYxi--9" value="path" style="text;strokeColor=none;fillColor=none;align=left;verticalAlign=middle;spacingLeft=4;spacingRight=4;overflow=hidden;points=[[0,0.5],[1,0.5]];portConstraint=eastwest;rotatable=0;whiteSpace=wrap;html=1;" vertex="1" parent="pl0yGp6066iL1tmnYxi--7">
          <mxGeometry y="75" width="140" height="30" as="geometry" />
        </mxCell>
        <mxCell id="pl0yGp6066iL1tmnYxi--10" value="egressCost" style="text;strokeColor=none;fillColor=none;align=left;verticalAlign=middle;spacingLeft=4;spacingRight=4;overflow=hidden;points=[[0,0.5],[1,0.5]];portConstraint=eastwest;rotatable=0;whiteSpace=wrap;html=1;" vertex="1" parent="pl0yGp6066iL1tmnYxi--7">
          <mxGeometry y="105" width="140" height="30" as="geometry" />
        </mxCell>
        <mxCell id="pl0yGp6066iL1tmnYxi--11" value="ingressCost" style="text;strokeColor=none;fillColor=none;align=left;verticalAlign=middle;spacingLeft=4;spacingRight=4;overflow=hidden;points=[[0,0.5],[1,0.5]];portConstraint=eastwest;rotatable=0;whiteSpace=wrap;html=1;" vertex="1" parent="pl0yGp6066iL1tmnYxi--7">
          <mxGeometry y="135" width="140" height="30" as="geometry" />
        </mxCell>
        <mxCell id="pl0yGp6066iL1tmnYxi--12" value="residenceCost" style="text;strokeColor=none;fillColor=none;align=left;verticalAlign=middle;spacingLeft=4;spacingRight=4;overflow=hidden;points=[[0,0.5],[1,0.5]];portConstraint=eastwest;rotatable=0;whiteSpace=wrap;html=1;" vertex="1" parent="pl0yGp6066iL1tmnYxi--7">
          <mxGeometry y="165" width="140" height="30" as="geometry" />
        </mxCell>
        <mxCell id="pl0yGp6066iL1tmnYxi--13" value="C: listener / data subscriber" style="swimlane;fontStyle=0;childLayout=stackLayout;horizontal=1;startSize=30;horizontalStack=0;resizeParent=1;resizeParentMax=0;resizeLast=0;collapsible=1;marginBottom=0;whiteSpace=wrap;html=1;" vertex="1" parent="1">
          <mxGeometry x="680" y="320" width="140" height="195" as="geometry" />
        </mxCell>
        <mxCell id="pl0yGp6066iL1tmnYxi--48" value="TSN Switch" style="strokeWidth=1;html=1;shadow=0;dashed=0;shape=mxgraph.ios.iOnOffButton;mainText=;strokeColor=#444444;fontSize=9;fontColor=#ffffff;spacingRight=14;buttonState=on;sketch=0;" vertex="1" parent="pl0yGp6066iL1tmnYxi--13">
          <mxGeometry y="30" width="140" height="15" as="geometry" />
        </mxCell>
        <mxCell id="pl0yGp6066iL1tmnYxi--14" value="cost" style="text;strokeColor=none;fillColor=none;align=left;verticalAlign=middle;spacingLeft=4;spacingRight=4;overflow=hidden;points=[[0,0.5],[1,0.5]];portConstraint=eastwest;rotatable=0;whiteSpace=wrap;html=1;" vertex="1" parent="pl0yGp6066iL1tmnYxi--13">
          <mxGeometry y="45" width="140" height="30" as="geometry" />
        </mxCell>
        <mxCell id="pl0yGp6066iL1tmnYxi--15" value="path" style="text;strokeColor=none;fillColor=none;align=left;verticalAlign=middle;spacingLeft=4;spacingRight=4;overflow=hidden;points=[[0,0.5],[1,0.5]];portConstraint=eastwest;rotatable=0;whiteSpace=wrap;html=1;" vertex="1" parent="pl0yGp6066iL1tmnYxi--13">
          <mxGeometry y="75" width="140" height="30" as="geometry" />
        </mxCell>
        <mxCell id="pl0yGp6066iL1tmnYxi--16" value="egressCost" style="text;strokeColor=none;fillColor=none;align=left;verticalAlign=middle;spacingLeft=4;spacingRight=4;overflow=hidden;points=[[0,0.5],[1,0.5]];portConstraint=eastwest;rotatable=0;whiteSpace=wrap;html=1;" vertex="1" parent="pl0yGp6066iL1tmnYxi--13">
          <mxGeometry y="105" width="140" height="30" as="geometry" />
        </mxCell>
        <mxCell id="pl0yGp6066iL1tmnYxi--17" value="ingressCost" style="text;strokeColor=none;fillColor=none;align=left;verticalAlign=middle;spacingLeft=4;spacingRight=4;overflow=hidden;points=[[0,0.5],[1,0.5]];portConstraint=eastwest;rotatable=0;whiteSpace=wrap;html=1;" vertex="1" parent="pl0yGp6066iL1tmnYxi--13">
          <mxGeometry y="135" width="140" height="30" as="geometry" />
        </mxCell>
        <mxCell id="pl0yGp6066iL1tmnYxi--18" value="residenceCost" style="text;strokeColor=none;fillColor=none;align=left;verticalAlign=middle;spacingLeft=4;spacingRight=4;overflow=hidden;points=[[0,0.5],[1,0.5]];portConstraint=eastwest;rotatable=0;whiteSpace=wrap;html=1;" vertex="1" parent="pl0yGp6066iL1tmnYxi--13">
          <mxGeometry y="165" width="140" height="30" as="geometry" />
        </mxCell>
        <mxCell id="pl0yGp6066iL1tmnYxi--19" style="edgeStyle=orthogonalEdgeStyle;rounded=0;orthogonalLoop=1;jettySize=auto;html=1;exitX=1;exitY=0.5;exitDx=0;exitDy=0;entryX=0;entryY=0.5;entryDx=0;entryDy=0;" edge="1" parent="1" source="pl0yGp6066iL1tmnYxi--3" target="pl0yGp6066iL1tmnYxi--9">
          <mxGeometry relative="1" as="geometry" />
        </mxCell>
        <mxCell id="pl0yGp6066iL1tmnYxi--20" style="edgeStyle=orthogonalEdgeStyle;rounded=0;orthogonalLoop=1;jettySize=auto;html=1;exitX=1;exitY=0.5;exitDx=0;exitDy=0;entryX=0;entryY=0.5;entryDx=0;entryDy=0;" edge="1" parent="1" source="pl0yGp6066iL1tmnYxi--9" target="pl0yGp6066iL1tmnYxi--15">
          <mxGeometry relative="1" as="geometry" />
        </mxCell>
        <mxCell id="pl0yGp6066iL1tmnYxi--21" value="link 1" style="text;html=1;align=center;verticalAlign=middle;resizable=0;points=[];autosize=1;strokeColor=none;fillColor=none;" vertex="1" parent="1">
          <mxGeometry x="360" y="368" width="50" height="30" as="geometry" />
        </mxCell>
        <mxCell id="pl0yGp6066iL1tmnYxi--22" value="link 2" style="text;html=1;align=center;verticalAlign=middle;resizable=0;points=[];autosize=1;strokeColor=none;fillColor=none;" vertex="1" parent="1">
          <mxGeometry x="610" y="368" width="50" height="30" as="geometry" />
        </mxCell>
        <mxCell id="pl0yGp6066iL1tmnYxi--23" value="Publishing Device" style="swimlane;fontStyle=0;childLayout=stackLayout;horizontal=1;startSize=30;horizontalStack=0;resizeParent=1;resizeParentMax=0;resizeLast=0;collapsible=1;marginBottom=0;whiteSpace=wrap;html=1;" vertex="1" parent="1">
          <mxGeometry x="250" y="20" width="140" height="230" as="geometry" />
        </mxCell>
        <mxCell id="pl0yGp6066iL1tmnYxi--29" value="500" style="ellipse;whiteSpace=wrap;html=1;aspect=fixed;" vertex="1" parent="pl0yGp6066iL1tmnYxi--23">
          <mxGeometry y="30" width="140" height="80" as="geometry" />
        </mxCell>
        <mxCell id="pl0yGp6066iL1tmnYxi--24" value="priority: 4" style="text;strokeColor=none;fillColor=none;align=left;verticalAlign=middle;spacingLeft=4;spacingRight=4;overflow=hidden;points=[[0,0.5],[1,0.5]];portConstraint=eastwest;rotatable=0;whiteSpace=wrap;html=1;" vertex="1" parent="pl0yGp6066iL1tmnYxi--23">
          <mxGeometry y="110" width="140" height="30" as="geometry" />
        </mxCell>
        <mxCell id="pl0yGp6066iL1tmnYxi--25" value="publishingOffset: 400" style="text;strokeColor=none;fillColor=none;align=left;verticalAlign=middle;spacingLeft=4;spacingRight=4;overflow=hidden;points=[[0,0.5],[1,0.5]];portConstraint=eastwest;rotatable=0;whiteSpace=wrap;html=1;" vertex="1" parent="pl0yGp6066iL1tmnYxi--23">
          <mxGeometry y="140" width="140" height="30" as="geometry" />
        </mxCell>
        <mxCell id="pl0yGp6066iL1tmnYxi--26" value="receivingOffset: 5000" style="text;strokeColor=none;fillColor=none;align=left;verticalAlign=middle;spacingLeft=4;spacingRight=4;overflow=hidden;points=[[0,0.5],[1,0.5]];portConstraint=eastwest;rotatable=0;whiteSpace=wrap;html=1;" vertex="1" parent="pl0yGp6066iL1tmnYxi--23">
          <mxGeometry y="170" width="140" height="30" as="geometry" />
        </mxCell>
        <mxCell id="pl0yGp6066iL1tmnYxi--27" value="streamCost: 10016" style="text;strokeColor=none;fillColor=none;align=left;verticalAlign=middle;spacingLeft=4;spacingRight=4;overflow=hidden;points=[[0,0.5],[1,0.5]];portConstraint=eastwest;rotatable=0;whiteSpace=wrap;html=1;" vertex="1" parent="pl0yGp6066iL1tmnYxi--23">
          <mxGeometry y="200" width="140" height="30" as="geometry" />
        </mxCell>
        <mxCell id="pl0yGp6066iL1tmnYxi--30" value="Subscribing Device" style="swimlane;fontStyle=0;childLayout=stackLayout;horizontal=1;startSize=30;horizontalStack=0;resizeParent=1;resizeParentMax=0;resizeLast=0;collapsible=1;marginBottom=0;whiteSpace=wrap;html=1;" vertex="1" parent="1">
          <mxGeometry x="565" y="20" width="140" height="230" as="geometry" />
        </mxCell>
        <mxCell id="pl0yGp6066iL1tmnYxi--31" value="502" style="ellipse;whiteSpace=wrap;html=1;aspect=fixed;" vertex="1" parent="pl0yGp6066iL1tmnYxi--30">
          <mxGeometry y="30" width="140" height="80" as="geometry" />
        </mxCell>
        <mxCell id="pl0yGp6066iL1tmnYxi--37" value="priority: 4" style="text;strokeColor=none;fillColor=none;align=left;verticalAlign=middle;spacingLeft=4;spacingRight=4;overflow=hidden;points=[[0,0.5],[1,0.5]];portConstraint=eastwest;rotatable=0;whiteSpace=wrap;html=1;" vertex="1" parent="pl0yGp6066iL1tmnYxi--30">
          <mxGeometry y="110" width="140" height="30" as="geometry" />
        </mxCell>
        <mxCell id="pl0yGp6066iL1tmnYxi--40" value="streamCost: 100" style="text;strokeColor=none;fillColor=none;align=left;verticalAlign=middle;spacingLeft=4;spacingRight=4;overflow=hidden;points=[[0,0.5],[1,0.5]];portConstraint=eastwest;rotatable=0;whiteSpace=wrap;html=1;" vertex="1" parent="pl0yGp6066iL1tmnYxi--30">
          <mxGeometry y="140" width="140" height="30" as="geometry" />
        </mxCell>
        <mxCell id="pl0yGp6066iL1tmnYxi--39" value="receivingOffset: 5500" style="text;strokeColor=none;fillColor=none;align=left;verticalAlign=middle;spacingLeft=4;spacingRight=4;overflow=hidden;points=[[0,0.5],[1,0.5]];portConstraint=eastwest;rotatable=0;whiteSpace=wrap;html=1;" vertex="1" parent="pl0yGp6066iL1tmnYxi--30">
          <mxGeometry y="170" width="140" height="30" as="geometry" />
        </mxCell>
        <mxCell id="pl0yGp6066iL1tmnYxi--38" value="publishingOffset: 9984" style="text;strokeColor=none;fillColor=none;align=left;verticalAlign=middle;spacingLeft=4;spacingRight=4;overflow=hidden;points=[[0,0.5],[1,0.5]];portConstraint=eastwest;rotatable=0;whiteSpace=wrap;html=1;" vertex="1" parent="pl0yGp6066iL1tmnYxi--30">
          <mxGeometry y="200" width="140" height="30" as="geometry" />
        </mxCell>
      </root>
    </mxGraphModel>
  </diagram>
</mxfile>
